<svg xmlns="http://www.w3.org/2000/svg" width="200.0" height="200.0" viewBox="0 0 200.0 200.0">
<circle cx="100.0" cy="100.0" r="90.0" fill="white" stroke="black" stroke-width="2"/>
<polygon points="144.1,69.1 145.7,68.0 147.3,66.9 148.9,65.7 150.5,64.6 152.1,63.5 153.7,62.4 155.2,61.3 156.8,60.2 158.3,59.2 159.8,58.1 161.3,57.1 162.7,56.1 164.2,55.1 165.6,54.1 167.0,53.1 168.4,52.1 169.8,51.2 171.1,50.2 172.4,49.3 173.7,48.4 132.2,81.4 134.1,80.3 135.9,79.3 137.7,78.2 139.5,77.2 141.3,76.2 143.1,75.1 144.8,74.1 146.6,73.1 148.3,72.1 150.0,71.1 151.7,70.1 153.4,69.1 155.1,68.2 156.8,67.2 158.4,66.3 160.0,65.3 161.6,64.4 163.2,63.5 164.8,62.6 166.3,61.7 167.9,60.8 169.4,60.0 170.9,59.1 172.3,58.2 173.8,57.4 175.2,56.6 176.6,55.8 177.9,55.0 127.9,87.0 129.9,86.1 131.8,85.2 133.7,84.3 135.6,83.4 137.6,82.5 139.5,81.6 141.3,80.7 143.2,79.8 145.1,79.0 146.9,78.1 148.8,77.3 150.6,76.4 152.4,75.6 154.2,74.7 155.9,73.9 157.7,73.1 159.4,72.3 161.1,71.5 162.8,70.7 164.5,69.9 166.2,69.1 167.8,68.4 169.4,67.6 171.0,66.9 172.6,66.1 174.1,65.4 175.7,64.7 177.2,64.0 178.7,63.3 180.1,62.6 181.6,62.0 124.9,90.9 126.9,90.2 128.9,89.5 131.0,88.7 133.0,88.0 135.0,87.3 137.0,86.5 138.9,85.8 140.9,85.1 142.9,84.4 144.8,83.7 146.7,83.0 148.6,82.3 150.5,81.6 152.4,80.9 154.3,80.2 156.2,79.6 158.0,78.9 159.8,78.2 161.6,77.6 163.4,76.9 165.1,76.3 166.9,75.7 168.6,75.0 170.3,74.4 172.0,73.8 173.6,73.2 175.3,72.6 176.9,72.0 178.5,71.4 180.0,70.9 181.6,70.3 183.1,69.8 184.6,69.2 121.3,94.3 123.5,93.7 125.6,93.2 127.7,92.6 129.7,92.0 131.8,91.5 133.9,90.9 135.9,90.4 138.0,89.8 140.0,89.3 142.0,88.7 144.1,88.2 146.1,87.7 148.0,87.1 150.0,86.6 152.0,86.1 153.9,85.6 155.8,85.0 157.7,84.5 159.6,84.0 161.5,83.5 163.3,83.0 165.1,82.5 167.0,82.1 168.7,81.6 170.5,81.1 172.3,80.6 174.0,80.2 175.7,79.7 177.4,79.3 179.0,78.8 180.7,78.4 182.3,78.0 183.8,77.5 185.4,77.1 186.9,76.7 121.8,96.2 123.9,95.8 126.1,95.4 128.2,95.0 130.3,94.7 132.4,94.3 134.5,93.9 136.6,93.5 138.7,93.2 140.8,92.8 142.9,92.4 144.9,92.1 147.0,91.7 149.0,91.4 151.0,91.0 153.0,90.7 154.9,90.3 156.9,90.0 158.8,89.6 160.8,89.3 162.7,88.9 164.6,88.6 166.4,88.3 168.3,88.0 170.1,87.6 171.9,87.3 173.7,87.0 175.4,86.7 177.2,86.4 178.9,86.1 180.6,85.8 182.2,85.5 183.9,85.2 185.5,84.9 187.1,84.6 188.6,84.4 119.8,98.3 122.0,98.1 124.2,97.9 126.4,97.7 128.5,97.5 130.7,97.3 132.8,97.1 134.9,96.9 137.1,96.8 139.2,96.6 141.3,96.4 143.4,96.2 145.4,96.0 147.5,95.8 149.5,95.7 151.6,95.5 153.6,95.3 155.6,95.1 157.6,95.0 159.5,94.8 161.5,94.6 163.4,94.5 165.3,94.3 167.2,94.1 169.1,94.0 170.9,93.8 172.7,93.6 174.5,93.5 176.3,93.3 178.1,93.2 179.8,93.0 181.5,92.9 183.2,92.7 184.8,92.6 186.5,92.4 188.1,92.3 189.7,92.2 119.9,100.0 122.1,100.0 124.3,100.0 126.5,100.0 128.6,100.0 130.8,100.0 132.9,100.0 135.1,100.0 137.2,100.0 139.3,100.0 141.4,100.0 143.5,100.0 145.6,100.0 147.7,100.0 149.7,100.0 151.8,100.0 153.8,100.0 155.8,100.0 157.8,100.0 159.8,100.0 161.7,100.0 163.6,100.0 165.6,100.0 167.4,100.0 169.3,100.0 171.2,100.0 173.0,100.0 174.8,100.0 176.6,100.0 178.4,100.0 180.1,100.0 181.8,100.0 183.5,100.0 185.2,100.0 186.8,100.0 188.4,100.0 190.0,100.0 119.8,101.7 122.0,101.9 124.2,102.1 126.4,102.3 128.5,102.5 130.7,102.7 132.8,102.9 134.9,103.1 137.1,103.2 139.2,103.4 141.3,103.6 143.4,103.8 145.4,104.0 147.5,104.2 149.5,104.3 151.6,104.5 153.6,104.7 155.6,104.9 157.6,105.0 159.5,105.2 161.5,105.4 163.4,105.5 165.3,105.7 167.2,105.9 169.1,106.0 170.9,106.2 172.7,106.4 174.5,106.5 176.3,106.7 178.1,106.8 179.8,107.0 181.5,107.1 183.2,107.3 184.8,107.4 186.5,107.6 188.1,107.7 189.7,107.8 119.6,103.5 121.8,103.8 123.9,104.2 126.1,104.6 128.2,105.0 130.3,105.3 132.4,105.7 134.5,106.1 136.6,106.5 138.7,106.8 140.8,107.2 142.9,107.6 144.9,107.9 147.0,108.3 149.0,108.6 151.0,109.0 153.0,109.3 154.9,109.7 156.9,110.0 158.8,110.4 160.8,110.7 162.7,111.1 164.6,111.4 166.4,111.7 168.3,112.0 170.1,112.4 171.9,112.7 173.7,113.0 175.4,113.3 177.2,113.6 178.9,113.9 180.6,114.2 182.2,114.5 183.9,114.8 185.5,115.1 187.1,115.4 188.6,115.6 119.2,105.2 121.3,105.7 123.5,106.3 125.6,106.8 127.7,107.4 129.7,108.0 131.8,108.5 133.9,109.1 135.9,109.6 138.0,110.2 140.0,110.7 142.0,111.3 144.1,111.8 146.1,112.3 148.0,112.9 150.0,113.4 152.0,113.9 153.9,114.4 155.8,115.0 157.7,115.5 159.6,116.0 161.5,116.5 163.3,117.0 165.1,117.5 167.0,117.9 168.7,118.4 170.5,118.9 172.3,119.4 174.0,119.8 175.7,120.3 177.4,120.7 179.0,121.2 180.7,121.6 182.3,122.0 183.8,122.5 185.4,122.9 186.9,123.3 118.7,106.8 120.8,107.6 122.8,108.3 124.9,109.1 126.9,109.8 128.9,110.5 131.0,111.3 133.0,112.0 135.0,112.7 137.0,113.5 138.9,114.2 140.9,114.9 142.9,115.6 144.8,116.3 146.7,117.0 148.6,117.7 150.5,118.4 152.4,119.1 154.3,119.8 156.2,120.4 158.0,121.1 159.8,121.8 161.6,122.4 163.4,123.1 165.1,123.7 166.9,124.3 168.6,125.0 170.3,125.6 172.0,126.2 173.6,126.8 175.3,127.4 176.9,128.0 178.5,128.6 180.0,129.1 181.6,129.7 183.1,130.2 184.6,130.8 120.0,109.3 122.0,110.3 124.0,111.2 125.9,112.1 127.9,113.0 129.9,113.9 131.8,114.8 133.7,115.7 135.6,116.6 137.6,117.5 139.5,118.4 141.3,119.3 143.2,120.2 145.1,121.0 146.9,121.9 148.8,122.7 150.6,123.6 152.4,124.4 154.2,125.3 155.9,126.1 157.7,126.9 159.4,127.7 161.1,128.5 162.8,129.3 164.5,130.1 166.2,130.9 167.8,131.6 169.4,132.4 171.0,133.1 172.6,133.9 174.1,134.6 175.7,135.3 177.2,136.0 178.7,136.7 180.1,137.4 181.6,138.0 121.0,112.1 122.9,113.2 124.8,114.3 126.7,115.4 128.5,116.5 130.4,117.5 132.2,118.6 134.1,119.7 135.9,120.7 137.7,121.8 139.5,122.8 141.3,123.8 143.1,124.9 144.8,125.9 146.6,126.9 148.3,127.9 150.0,128.9 151.7,129.9 153.4,130.9 155.1,131.8 156.8,132.8 158.4,133.7 160.0,134.7 161.6,135.6 163.2,136.5 164.8,137.4 166.3,138.3 167.9,139.2 169.4,140.0 170.9,140.9 172.3,141.8 173.8,142.6 175.2,143.4 176.6,144.2 177.9,145.0 123.5,116.4 125.2,117.7 127.0,118.9 128.7,120.1 130.5,121.3 132.2,122.6 133.9,123.8 135.7,125.0 137.4,126.2 139.1,127.3 140.7,128.5 142.4,129.7 144.1,130.9 145.7,132.0 147.3,133.1 148.9,134.3 150.5,135.4 152.1,136.5 153.7,137.6 155.2,138.7 156.8,139.8 158.3,140.8 159.8,141.9 161.3,142.9 162.7,143.9 164.2,144.9 165.6,145.9 167.0,146.9 168.4,147.9 169.8,148.8 171.1,149.8 172.4,150.7 173.7,151.6 128.5,123.9 130.1,125.3 131.7,126.6 133.3,128.0 134.9,129.3 136.5,130.6 138.1,132.0 139.7,133.3 141.2,134.6 142.7,135.9 144.3,137.1 145.8,138.4 147.3,139.7 148.8,140.9 150.2,142.1 151.7,143.4 153.1,144.6 154.5,145.7 155.9,146.9 157.3,148.1 158.7,149.2 160.0,150.4 161.4,151.5 162.7,152.6 164.0,153.7 165.2,154.7 166.5,155.8 167.7,156.8 168.9,157.9 136.6,136.6 138.0,138.0 139.5,139.5 140.9,140.9 142.3,142.3 143.6,143.6 145.0,145.0 146.4,146.4 147.7,147.7 149.0,149.0 150.3,150.3 151.6,151.6 152.9,152.9 154.2,154.2 155.4,155.4 156.6,156.6 157.9,157.9 159.0,159.0 160.2,160.2 161.4,161.4 162.5,162.5 163.6,163.6 155.8,166.5 156.8,167.7 157.9,168.9 93.7,106.3 92.2,107.8 90.6,109.4 89.0,111.0 87.5,112.5 85.9,114.1 84.4,115.6 82.8,117.2 81.3,118.7 79.8,120.2 78.2,121.8 76.7,123.3 75.2,124.8 73.7,126.3 72.2,127.8 70.7,129.3 94.9,104.3 93.2,105.7 91.5,107.1 89.8,108.6 88.1,110.0 86.4,111.4 84.7,112.8 83.1,114.2 81.4,115.6 79.7,117.0 78.1,118.4 76.4,119.8 74.8,121.2 73.1,122.6 71.5,123.9 69.9,125.3 68.3,126.6 66.7,128.0 65.1,129.3 63.5,130.6 61.9,132.0 60.3,133.3 58.8,134.6 57.3,135.9 55.7,137.1 54.2,138.4 52.7,139.7 51.2,140.9 49.8,142.1 48.3,143.4 46.9,144.6 45.5,145.7 44.1,146.9 42.7,148.1 41.3,149.2 40.0,150.4 38.6,151.5 37.3,152.6 36.0,153.7 34.8,154.7 33.5,155.8 32.3,156.8 94.5,103.8 92.7,105.1 90.9,106.4 89.1,107.6 87.3,108.9 85.5,110.2 83.7,111.4 81.9,112.7 80.1,113.9 78.3,115.2 76.5,116.4 74.8,117.7 73.0,118.9 71.3,120.1 69.5,121.3 67.8,122.6 66.1,123.8 64.3,125.0 62.6,126.2 60.9,127.3 59.3,128.5 57.6,129.7 55.9,130.9 54.3,132.0 52.7,133.1 51.1,134.3 49.5,135.4 47.9,136.5 46.3,137.6 44.8,138.7 43.2,139.8 41.7,140.8 40.2,141.9 38.7,142.9 37.3,143.9 35.8,144.9 34.4,145.9 33.0,146.9 31.6,147.9 30.2,148.8 28.9,149.8 27.6,150.7 26.3,151.6 96.2,102.2 94.2,103.3 92.3,104.4 90.4,105.5 88.5,106.7 86.6,107.8 84.7,108.9 82.8,110.0 80.9,111.1 79.0,112.1 77.1,113.2 75.2,114.3 73.3,115.4 71.5,116.5 69.6,117.5 67.8,118.6 65.9,119.7 64.1,120.7 62.3,121.8 60.5,122.8 58.7,123.8 56.9,124.9 55.2,125.9 53.4,126.9 51.7,127.9 50.0,128.9 48.3,129.9 46.6,130.9 44.9,131.8 43.2,132.8 41.6,133.7 40.0,134.7 38.4,135.6 36.8,136.5 35.2,137.4 33.7,138.3 32.1,139.2 30.6,140.0 29.1,140.9 27.7,141.8 26.2,142.6 24.8,143.4 23.4,144.2 22.1,145.0 96.0,101.9 94.0,102.8 92.0,103.8 89.9,104.7 87.9,105.6 85.9,106.6 83.9,107.5 82.0,108.4 80.0,109.3 78.0,110.3 76.0,111.2 74.1,112.1 72.1,113.0 70.1,113.9 68.2,114.8 66.3,115.7 64.4,116.6 62.4,117.5 60.5,118.4 58.7,119.3 56.8,120.2 54.9,121.0 53.1,121.9 51.2,122.7 49.4,123.6 47.6,124.4 45.8,125.3 44.1,126.1 42.3,126.9 40.6,127.7 38.9,128.5 37.2,129.3 35.5,130.1 33.8,130.9 32.2,131.6 30.6,132.4 29.0,133.1 27.4,133.9 25.9,134.6 24.3,135.3 22.8,136.0 21.3,136.7 19.9,137.4 18.4,138.0 95.8,101.5 93.7,102.3 91.7,103.0 89.6,103.8 87.5,104.6 85.4,105.3 83.4,106.1 81.3,106.8 79.2,107.6 77.2,108.3 75.1,109.1 73.1,109.8 71.1,110.5 69.0,111.3 67.0,112.0 65.0,112.7 63.0,113.5 61.1,114.2 59.1,114.9 57.1,115.6 55.2,116.3 53.3,117.0 51.4,117.7 49.5,118.4 47.6,119.1 45.7,119.8 43.8,120.4 42.0,121.1 40.2,121.8 38.4,122.4 36.6,123.1 34.9,123.7 33.1,124.3 31.4,125.0 29.7,125.6 28.0,126.2 26.4,126.8 24.7,127.4 23.1,128.0 21.5,128.6 20.0,129.1 18.4,129.7 16.9,130.2 15.4,130.8 95.7,101.1 93.6,101.7 91.4,102.3 89.3,102.9 87.1,103.4 85.0,104.0 82.9,104.6 80.8,105.2 78.7,105.7 76.5,106.3 74.4,106.8 72.3,107.4 70.3,108.0 68.2,108.5 66.1,109.1 64.1,109.6 62.0,110.2 60.0,110.7 58.0,111.3 55.9,111.8 53.9,112.3 52.0,112.9 50.0,113.4 48.0,113.9 46.1,114.4 44.2,115.0 42.3,115.5 40.4,116.0 38.5,116.5 36.7,117.0 34.9,117.5 33.0,117.9 31.3,118.4 29.5,118.9 27.7,119.4 26.0,119.8 24.3,120.3 22.6,120.7 21.0,121.2 19.3,121.6 17.7,122.0 16.2,122.5 14.6,122.9 13.1,123.3 95.6,100.8 93.4,101.2 91.3,101.5 89.1,101.9 86.9,102.3 84.7,102.7 82.6,103.1 80.4,103.5 78.2,103.8 76.1,104.2 73.9,104.6 71.8,105.0 69.7,105.3 67.6,105.7 65.5,106.1 63.4,106.5 61.3,106.8 59.2,107.2 57.1,107.6 55.1,107.9 53.0,108.3 51.0,108.6 49.0,109.0 47.0,109.3 45.1,109.7 43.1,110.0 41.2,110.4 39.2,110.7 37.3,111.1 35.4,111.4 33.6,111.7 31.7,112.0 29.9,112.4 28.1,112.7 26.3,113.0 24.6,113.3 22.8,113.6 21.1,113.9 19.4,114.2 17.8,114.5 16.1,114.8 14.5,115.1 12.9,115.4 11.4,115.6 95.6,100.4 93.4,100.6 91.2,100.8 88.9,101.0 86.7,101.2 84.5,101.4 82.4,101.5 80.2,101.7 78.0,101.9 75.8,102.1 73.6,102.3 71.5,102.5 69.3,102.7 67.2,102.9 65.1,103.1 62.9,103.2 60.8,103.4 58.7,103.6 56.6,103.8 54.6,104.0 52.5,104.2 50.5,104.3 48.4,104.5 46.4,104.7 44.4,104.9 42.4,105.0 40.5,105.2 38.5,105.4 36.6,105.5 34.7,105.7 32.8,105.9 30.9,106.0 29.1,106.2 27.3,106.4 25.5,106.5 23.7,106.7 21.9,106.8 20.2,107.0 18.5,107.1 16.8,107.3 15.2,107.4 13.5,107.6 11.9,107.7 10.3,107.8 95.6,100.0 93.3,100.0 91.1,100.0 88.9,100.0 86.7,100.0 84.5,100.0 82.3,100.0 80.1,100.0 77.9,100.0 75.7,100.0 73.5,100.0 71.4,100.0 69.2,100.0 67.1,100.0 64.9,100.0 62.8,100.0 60.7,100.0 58.6,100.0 56.5,100.0 54.4,100.0 52.3,100.0 50.3,100.0 48.2,100.0 46.2,100.0 44.2,100.0 42.2,100.0 40.2,100.0 38.3,100.0 36.4,100.0 34.4,100.0 32.6,100.0 30.7,100.0 28.8,100.0 27.0,100.0 25.2,100.0 23.4,100.0 21.6,100.0 19.9,100.0 18.2,100.0 16.5,100.0 14.8,100.0 13.2,100.0 11.6,100.0 10.0,100.0 95.6,99.6 93.4,99.4 91.2,99.2 88.9,99.0 86.7,98.8 84.5,98.6 82.4,98.5 80.2,98.3 78.0,98.1 75.8,97.9 73.6,97.7 71.5,97.5 69.3,97.3 67.2,97.1 65.1,96.9 62.9,96.8 60.8,96.6 58.7,96.4 56.6,96.2 54.6,96.0 52.5,95.8 50.5,95.7 48.4,95.5 46.4,95.3 44.4,95.1 42.4,95.0 40.5,94.8 38.5,94.6 36.6,94.5 34.7,94.3 32.8,94.1 30.9,94.0 29.1,93.8 27.3,93.6 25.5,93.5 23.7,93.3 21.9,93.2 20.2,93.0 18.5,92.9 16.8,92.7 15.2,92.6 13.5,92.4 11.9,92.3 10.3,92.2 95.6,99.2 93.4,98.8 91.3,98.5 89.1,98.1 86.9,97.7 84.7,97.3 82.6,96.9 80.4,96.5 78.2,96.2 76.1,95.8 73.9,95.4 71.8,95.0 69.7,94.7 67.6,94.3 65.5,93.9 63.4,93.5 61.3,93.2 59.2,92.8 57.1,92.4 55.1,92.1 53.0,91.7 51.0,91.4 49.0,91.0 47.0,90.7 45.1,90.3 43.1,90.0 41.2,89.6 39.2,89.3 37.3,88.9 35.4,88.6 33.6,88.3 31.7,88.0 29.9,87.6 28.1,87.3 26.3,87.0 24.6,86.7 22.8,86.4 21.1,86.1 19.4,85.8 17.8,85.5 16.1,85.2 14.5,84.9 12.9,84.6 11.4,84.4 95.7,98.9 93.6,98.3 91.4,97.7 89.3,97.1 87.1,96.6 85.0,96.0 82.9,95.4 80.8,94.8 78.7,94.3 76.5,93.7 74.4,93.2 72.3,92.6 70.3,92.0 68.2,91.5 66.1,90.9 64.1,90.4 62.0,89.8 60.0,89.3 58.0,88.7 55.9,88.2 53.9,87.7 52.0,87.1 50.0,86.6 48.0,86.1 46.1,85.6 44.2,85.0 42.3,84.5 40.4,84.0 38.5,83.5 36.7,83.0 34.9,82.5 33.0,82.1 31.3,81.6 29.5,81.1 27.7,80.6 26.0,80.2 24.3,79.7 22.6,79.3 21.0,78.8 19.3,78.4 17.7,78.0 16.2,77.5 14.6,77.1 13.1,76.7 95.8,98.5 93.7,97.7 91.7,97.0 89.6,96.2 87.5,95.4 85.4,94.7 83.4,93.9 81.3,93.2 79.2,92.4 77.2,91.7 75.1,90.9 73.1,90.2 71.1,89.5 69.0,88.7 67.0,88.0 65.0,87.3 63.0,86.5 61.1,85.8 59.1,85.1 57.1,84.4 55.2,83.7 53.3,83.0 51.4,82.3 49.5,81.6 47.6,80.9 45.7,80.2 43.8,79.6 42.0,78.9 40.2,78.2 38.4,77.6 36.6,76.9 34.9,76.3 33.1,75.7 31.4,75.0 29.7,74.4 28.0,73.8 26.4,73.2 24.7,72.6 23.1,72.0 21.5,71.4 20.0,70.9 18.4,70.3 16.9,69.8 15.4,69.2 96.0,98.1 94.0,97.2 92.0,96.2 89.9,95.3 87.9,94.4 85.9,93.4 83.9,92.5 82.0,91.6 80.0,90.7 78.0,89.7 76.0,88.8 74.1,87.9 72.1,87.0 70.1,86.1 68.2,85.2 66.3,84.3 64.4,83.4 62.4,82.5 60.5,81.6 58.7,80.7 56.8,79.8 54.9,79.0 53.1,78.1 51.2,77.3 49.4,76.4 47.6,75.6 45.8,74.7 44.1,73.9 42.3,73.1 40.6,72.3 38.9,71.5 37.2,70.7 35.5,69.9 33.8,69.1 32.2,68.4 30.6,67.6 29.0,66.9 27.4,66.1 25.9,65.4 24.3,64.7 22.8,64.0 21.3,63.3 19.9,62.6 18.4,62.0 96.2,97.8 94.2,96.7 92.3,95.6 90.4,94.5 88.5,93.3 86.6,92.2 84.7,91.1 82.8,90.0 80.9,88.9 79.0,87.9 77.1,86.8 75.2,85.7 73.3,84.6 71.5,83.5 69.6,82.5 67.8,81.4 65.9,80.3 64.1,79.3 62.3,78.2 60.5,77.2 58.7,76.2 56.9,75.1 55.2,74.1 53.4,73.1 51.7,72.1 50.0,71.1 48.3,70.1 46.6,69.1 44.9,68.2 43.2,67.2 41.6,66.3 40.0,65.3 38.4,64.4 36.8,63.5 35.2,62.6 33.7,61.7 32.1,60.8 30.6,60.0 29.1,59.1 27.7,58.2 26.2,57.4 24.8,56.6 23.4,55.8 22.1,55.0 96.4,97.5 94.5,96.2 92.7,94.9 90.9,93.6 89.1,92.4 87.3,91.1 85.5,89.8 83.7,88.6 81.9,87.3 80.1,86.1 78.3,84.8 76.5,83.6 74.8,82.3 73.0,81.1 71.3,79.9 69.5,78.7 67.8,77.4 66.1,76.2 64.3,75.0 62.6,73.8 60.9,72.7 59.3,71.5 57.6,70.3 55.9,69.1 54.3,68.0 52.7,66.9 51.1,65.7 49.5,64.6 47.9,63.5 46.3,62.4 44.8,61.3 43.2,60.2 41.7,59.2 40.2,58.1 38.7,57.1 37.3,56.1 35.8,55.1 34.4,54.1 33.0,53.1 31.6,52.1 30.2,51.2 28.9,50.2 27.6,49.3 26.3,48.4 96.6,97.1 94.9,95.7 93.2,94.3 91.5,92.9 89.8,91.4 88.1,90.0 86.4,88.6 84.7,87.2 83.1,85.8 81.4,84.4 79.7,83.0 78.1,81.6 76.4,80.2 74.8,78.8 73.1,77.4 71.5,76.1 69.9,74.7 68.3,73.4 66.7,72.0 65.1,70.7 63.5,69.4 61.9,68.0 60.3,66.7 58.8,65.4 57.3,64.1 55.7,62.9 54.2,61.6 52.7,60.3 51.2,59.1 49.8,57.9 48.3,56.6 46.9,55.4 45.5,54.3 44.1,53.1 42.7,51.9 41.3,50.8 40.0,49.6 38.6,48.5 37.3,47.4 36.0,46.3 34.8,45.3 33.5,44.2 32.3,43.2 31.1,42.1 95.3,95.3 93.7,93.7 92.2,92.2 90.6,90.6 89.0,89.0 87.5,87.5 85.9,85.9 84.4,84.4 82.8,82.8 81.3,81.3 79.8,79.8 78.2,78.2 76.7,76.7 75.2,75.2 73.7,73.7 72.2,72.2 70.7,70.7 69.2,69.2 67.7,67.7 66.3,66.3 64.8,64.8 63.4,63.4 62.0,62.0 60.5,60.5 59.1,59.1 57.7,57.7 56.4,56.4 55.0,55.0 53.6,53.6 52.3,52.3 51.0,51.0 49.7,49.7 48.4,48.4 47.1,47.1 45.8,45.8 44.6,44.6 43.4,43.4 42.1,42.1 41.0,41.0 39.8,39.8 38.6,38.6 37.5,37.5 36.4,36.4 95.7,94.9 94.3,93.2 92.9,91.5 91.4,89.8 90.0,88.1 88.6,86.4 87.2,84.7 85.8,83.1 84.4,81.4 83.0,79.7 81.6,78.1 80.2,76.4 78.8,74.8 77.4,73.1 76.1,71.5 74.7,69.9 73.4,68.3 72.0,66.7 70.7,65.1 69.4,63.5 68.0,61.9 66.7,60.3 65.4,58.8 64.1,57.3 62.9,55.7 61.6,54.2 60.3,52.7 59.1,51.2 57.9,49.8 56.6,48.3 55.4,46.9 54.3,45.5 53.1,44.1 51.9,42.7 50.8,41.3 49.6,40.0 48.5,38.6 47.4,37.3 46.3,36.0 45.3,34.8 44.2,33.5 43.2,32.3 42.1,31.1 94.9,92.7 93.6,90.9 92.4,89.1 91.1,87.3 89.8,85.5 88.6,83.7 87.3,81.9 86.1,80.1 84.8,78.3 83.6,76.5 82.3,74.8 81.1,73.0 79.9,71.3 78.7,69.5 77.4,67.8 76.2,66.1 75.0,64.3" fill="#E03030" fill-opacity="0.7" stroke="none"/>
<polygon points="100.0,100.0 100.0,97.8 100.0,95.6 100.0,93.3 100.0,91.1 100.0,88.9 100.0,86.7 100.0,84.5 100.0,82.3 100.0,80.1 100.0,77.9 100.0,75.7 100.0,73.5 100.0,71.4 100.0,69.2 100.0,67.1 100.0,64.9 100.0,62.8 100.0,60.7 100.0,58.6 100.0,56.5 100.0,54.4 100.0,52.3 100.0,50.3 100.0,48.2 100.0,46.2 100.0,44.2 100.0,42.2 100.0,40.2 100.0,38.3 100.0,36.4 100.0,34.4 100.0,32.6 100.0,30.7 100.0,28.8 100.0,27.0 100.0,25.2 100.0,23.4 100.0,21.6 100.0,19.9 100.0,18.2 100.0,16.5 100.0,14.8 100.0,13.2 100.0,11.6 100.0,10.0 100.0,100.0 100.2,97.8 100.4,95.6 100.6,93.4 100.8,91.2 101.0,88.9 101.2,86.7 101.4,84.5 101.5,82.4 101.7,80.2 101.9,78.0 102.1,75.8 102.3,73.6 102.5,71.5 102.7,69.3 102.9,67.2 103.1,65.1 103.2,62.9 103.4,60.8 103.6,58.7 103.8,56.6 104.0,54.6 104.2,52.5 104.3,50.5 104.5,48.4 104.7,46.4 104.9,44.4 105.0,42.4 105.2,40.5 105.4,38.5 105.5,36.6 105.7,34.7 105.9,32.8 106.0,30.9 106.2,29.1 106.4,27.3 106.5,25.5 106.7,23.7 106.8,21.9 107.0,20.2 107.1,18.5 107.3,16.8 107.4,15.2 107.6,13.5 107.7,11.9 107.8,10.3 100.0,100.0 100.4,97.8 100.8,95.6 101.2,93.4 101.5,91.3 101.9,89.1 102.3,86.9 102.7,84.7 103.1,82.6 103.5,80.4 103.8,78.2 104.2,76.1 104.6,73.9 105.0,71.8 105.3,69.7 105.7,67.6 106.1,65.5 106.5,63.4 106.8,61.3 107.2,59.2 107.6,57.1 107.9,55.1 108.3,53.0 108.6,51.0 109.0,49.0 109.3,47.0 109.7,45.1 110.0,43.1 110.4,41.2 110.7,39.2 111.1,37.3 111.4,35.4 111.7,33.6 112.0,31.7 112.4,29.9 112.7,28.1 113.0,26.3 113.3,24.6 113.6,22.8 113.9,21.1 114.2,19.4 114.5,17.8 114.8,16.1 115.1,14.5 115.4,12.9 115.6,11.4 100.0,100.0 100.6,97.9 101.1,95.7 101.7,93.6 102.3,91.4 102.9,89.3 103.4,87.1 104.0,85.0 104.6,82.9 105.2,80.8 105.7,78.7 106.3,76.5 106.8,74.4 107.4,72.3 108.0,70.3 108.5,68.2 109.1,66.1 109.6,64.1 110.2,62.0 110.7,60.0 111.3,58.0 111.8,55.9 112.3,53.9 112.9,52.0 113.4,50.0 113.9,48.0 114.4,46.1 115.0,44.2 115.5,42.3 116.0,40.4 116.5,38.5 117.0,36.7 117.5,34.9 117.9,33.0 118.4,31.3 118.9,29.5 119.4,27.7 119.8,26.0 120.3,24.3 120.7,22.6 121.2,21.0 121.6,19.3 122.0,17.7 122.5,16.2 122.9,14.6 123.3,13.1 100.0,100.0 100.8,97.9 101.5,95.8 102.3,93.7 103.0,91.7 103.8,89.6 104.6,87.5 105.3,85.4 106.1,83.4 106.8,81.3 107.6,79.2 108.3,77.2 109.1,75.1 109.8,73.1 110.5,71.1 111.3,69.0 112.0,67.0 112.7,65.0 113.5,63.0 114.2,61.1 114.9,59.1 115.6,57.1 116.3,55.2 117.0,53.3 117.7,51.4 118.4,49.5 119.1,47.6 119.8,45.7 120.4,43.8 121.1,42.0 121.8,40.2 122.4,38.4 123.1,36.6 123.7,34.9 124.3,33.1 125.0,31.4 125.6,29.7 126.2,28.0 126.8,26.4 127.4,24.7 128.0,23.1 128.6,21.5 129.1,20.0 129.7,18.4 130.2,16.9 130.8,15.4 100.0,100.0 100.9,98.0 101.9,96.0 102.8,94.0 103.8,92.0 104.7,89.9 105.6,87.9 106.6,85.9 107.5,83.9 108.4,82.0 109.3,80.0 110.3,78.0 111.2,76.0 112.1,74.1 113.0,72.1 113.9,70.1 114.8,68.2 115.7,66.3 116.6,64.4 117.5,62.4 118.4,60.5 119.3,58.7 120.2,56.8 121.0,54.9 121.9,53.1 122.7,51.2 123.6,49.4 124.4,47.6 125.3,45.8 126.1,44.1 126.9,42.3 127.7,40.6 128.5,38.9 129.3,37.2 130.1,35.5 130.9,33.8 131.6,32.2 132.4,30.6 133.1,29.0 133.9,27.4 134.6,25.9 135.3,24.3 136.0,22.8 136.7,21.3 137.4,19.9 138.0,18.4 100.0,100.0 101.1,98.1 102.2,96.2 103.3,94.2 104.4,92.3 105.5,90.4 106.7,88.5 107.8,86.6 108.9,84.7 110.0,82.8 111.1,80.9 112.1,79.0 113.2,77.1 114.3,75.2 115.4,73.3 116.5,71.5 117.5,69.6 118.6,67.8 119.7,65.9 120.7,64.1 121.8,62.3 122.8,60.5 123.8,58.7 124.9,56.9 125.9,55.2 126.9,53.4 127.9,51.7 128.9,50.0 129.9,48.3 130.9,46.6 131.8,44.9 132.8,43.2 133.7,41.6 134.7,40.0 135.6,38.4 136.5,36.8 137.4,35.2 138.3,33.7 139.2,32.1 140.0,30.6 140.9,29.1 141.8,27.7 142.6,26.2 143.4,24.8 144.2,23.4 145.0,22.1 100.0,100.0 101.3,98.2 102.5,96.4 103.8,94.5 105.1,92.7 106.4,90.9 107.6,89.1 108.9,87.3 110.2,85.5 111.4,83.7 112.7,81.9 113.9,80.1 115.2,78.3 116.4,76.5 117.7,74.8 118.9,73.0 120.1,71.3 121.3,69.5 122.6,67.8 123.8,66.1 125.0,64.3 126.2,62.6 127.3,60.9 128.5,59.3 129.7,57.6 130.9,55.9 132.0,54.3 133.1,52.7 134.3,51.1 135.4,49.5 136.5,47.9 137.6,46.3 138.7,44.8 139.8,43.2 140.8,41.7 141.9,40.2 142.9,38.7 143.9,37.3 144.9,35.8 145.9,34.4 146.9,33.0 147.9,31.6 148.8,30.2 149.8,28.9 150.7,27.6 151.6,26.3 100.0,100.0 101.4,98.3 102.9,96.6 104.3,94.9 105.7,93.2 107.1,91.5 108.6,89.8 110.0,88.1 111.4,86.4 112.8,84.7 114.2,83.1 115.6,81.4 117.0,79.7 118.4,78.1 119.8,76.4 121.2,74.8 122.6,73.1 123.9,71.5 125.3,69.9 126.6,68.3 128.0,66.7 129.3,65.1 130.6,63.5 132.0,61.9 133.3,60.3 134.6,58.8 135.9,57.3 137.1,55.7 138.4,54.2 139.7,52.7 140.9,51.2 142.1,49.8 143.4,48.3 144.6,46.9 145.7,45.5 146.9,44.1 148.1,42.7 149.2,41.3 150.4,40.0 151.5,38.6 152.6,37.3 153.7,36.0 154.7,34.8 155.8,33.5 156.8,32.3 157.9,31.1 100.0,100.0 101.6,98.4 103.1,96.9 104.7,95.3 106.3,93.7 107.8,92.2 109.4,90.6 111.0,89.0 112.5,87.5 114.1,85.9 115.6,84.4 117.2,82.8 118.7,81.3 120.2,79.8 121.8,78.2 123.3,76.7 124.8,75.2 126.3,73.7 127.8,72.2 129.3,70.7 130.8,69.2 132.3,67.7 133.7,66.3 135.2,64.8 136.6,63.4 138.0,62.0 139.5,60.5 140.9,59.1 142.3,57.7 143.6,56.4 145.0,55.0 146.4,53.6 147.7,52.3 149.0,51.0 150.3,49.7 151.6,48.4 152.9,47.1 154.2,45.8 155.4,44.6 156.6,43.4 157.9,42.1 159.0,41.0 160.2,39.8 161.4,38.6 162.5,37.5 163.6,36.4 100.0,100.0 101.7,98.6 103.4,97.1 105.1,95.7 106.8,94.3 108.5,92.9 110.2,91.4 111.9,90.0 113.6,88.6 115.3,87.2 116.9,85.8 118.6,84.4 120.3,83.0 121.9,81.6 123.6,80.2 125.2,78.8 126.9,77.4 128.5,76.1 130.1,74.7 131.7,73.4 133.3,72.0 134.9,70.7 136.5,69.4 138.1,68.0 139.7,66.7 141.2,65.4 142.7,64.1 144.3,62.9 145.8,61.6 147.3,60.3 148.8,59.1 150.2,57.9 151.7,56.6 153.1,55.4 154.5,54.3 155.9,53.1 157.3,51.9 158.7,50.8 160.0,49.6 161.4,48.5 162.7,47.4 164.0,46.3 165.2,45.3 166.5,44.2 167.7,43.2 168.9,42.1 100.0,100.0 101.8,98.7 103.6,97.5 105.5,96.2 107.3,94.9 109.1,93.6 110.9,92.4 112.7,91.1 114.5,89.8 116.3,88.6 118.1,87.3 119.9,86.1 121.7,84.8 123.5,83.6 125.2,82.3 127.0,81.1 128.7,79.9 130.5,78.7 132.2,77.4 133.9,76.2 135.7,75.0 137.4,73.8 139.1,72.7 140.7,71.5 142.4,70.3 100.0,100.0 101.9,98.9 103.8,97.8 105.8,96.7 107.7,95.6 109.6,94.5 111.5,93.3 113.4,92.2 115.3,91.1 117.2,90.0 119.1,88.9 121.0,87.9 122.9,86.8 124.8,85.7 126.7,84.6 128.5,83.5 130.4,82.5 100.0,100.0 102.0,99.1 104.0,98.1 106.0,97.2 108.0,96.2 110.1,95.3 112.1,94.4 114.1,93.4 116.1,92.5 118.0,91.6 120.0,90.7 122.0,89.7 124.0,88.8 125.9,87.9 100.0,100.0 102.1,99.2 104.2,98.5 106.3,97.7 108.3,97.0 110.4,96.2 112.5,95.4 114.6,94.7 116.6,93.9 118.7,93.2 120.8,92.4 122.8,91.7 100.0,100.0 102.1,99.4 104.3,98.9 106.4,98.3 108.6,97.7 110.7,97.1 112.9,96.6 115.0,96.0 117.1,95.4 119.2,94.8 100.0,100.0 102.2,99.6 104.4,99.2 106.6,98.8 108.7,98.5 110.9,98.1 113.1,97.7 115.3,97.3 117.4,96.9 119.6,96.5 100.0,100.0 102.2,99.8 104.4,99.6 106.6,99.4 108.8,99.2 111.1,99.0 113.3,98.8 115.5,98.6 117.6,98.5 100.0,100.0 102.2,100.0 104.4,100.0 106.7,100.0 108.9,100.0 111.1,100.0 113.3,100.0 115.5,100.0 117.7,100.0 100.0,100.0 102.2,100.2 104.4,100.4 106.6,100.6 108.8,100.8 111.1,101.0 113.3,101.2 115.5,101.4 117.6,101.5 100.0,100.0 102.2,100.4 104.4,100.8 106.6,101.2 108.7,101.5 110.9,101.9 113.1,102.3 115.3,102.7 117.4,103.1 100.0,100.0 102.1,100.6 104.3,101.1 106.4,101.7 108.6,102.3 110.7,102.9 112.9,103.4 115.0,104.0 117.1,104.6 100.0,100.0 102.1,100.8 104.2,101.5 106.3,102.3 108.3,103.0 110.4,103.8 112.5,104.6 114.6,105.3 116.6,106.1 100.0,100.0 102.0,100.9 104.0,101.9 106.0,102.8 108.0,103.8 110.1,104.7 112.1,105.6 114.1,106.6 116.1,107.5 118.0,108.4 100.0,100.0 101.9,101.1 103.8,102.2 105.8,103.3 107.7,104.4 109.6,105.5 111.5,106.7 113.4,107.8 115.3,108.9 117.2,110.0 119.1,111.1 100.0,100.0 101.8,101.3 103.6,102.5 105.5,103.8 107.3,105.1 109.1,106.4 110.9,107.6 112.7,108.9 114.5,110.2 116.3,111.4 118.1,112.7 119.9,113.9 121.7,115.2 100.0,100.0 101.7,101.4 103.4,102.9 105.1,104.3 106.8,105.7 108.5,107.1 110.2,108.6 111.9,110.0 113.6,111.4 115.3,112.8 116.9,114.2 118.6,115.6 120.3,117.0 121.9,118.4 123.6,119.8 125.2,121.2 126.9,122.6 100.0,100.0 101.6,101.6 103.1,103.1 104.7,104.7 106.3,106.3 107.8,107.8 109.4,109.4 111.0,111.0 112.5,112.5 114.1,114.1 115.6,115.6 117.2,117.2 118.7,118.7 120.2,120.2 121.8,121.8 123.3,123.3 124.8,124.8 126.3,126.3 127.8,127.8 129.3,129.3 130.8,130.8 132.3,132.3 133.7,133.7 135.2,135.2 100.0,100.0 101.4,101.7 102.9,103.4 104.3,105.1 105.7,106.8 107.1,108.5 108.6,110.2 110.0,111.9 111.4,113.6 112.8,115.3 114.2,116.9 115.6,118.6 117.0,120.3 118.4,121.9 119.8,123.6 121.2,125.2 122.6,126.9 123.9,128.5 125.3,130.1 126.6,131.7 128.0,133.3 129.3,134.9 130.6,136.5 132.0,138.1 133.3,139.7 134.6,141.2 135.9,142.7 137.1,144.3 138.4,145.8 139.7,147.3 140.9,148.8 142.1,150.2 143.4,151.7 144.6,153.1 145.7,154.5 146.9,155.9 148.1,157.3 149.2,158.7 150.4,160.0 151.5,161.4 152.6,162.7 153.7,164.0 154.7,165.2 100.0,100.0 101.3,101.8 102.5,103.6 103.8,105.5 105.1,107.3 106.4,109.1 107.6,110.9 108.9,112.7 110.2,114.5 111.4,116.3 112.7,118.1 113.9,119.9 115.2,121.7 116.4,123.5 117.7,125.2 118.9,127.0 120.1,128.7 121.3,130.5 122.6,132.2 123.8,133.9 125.0,135.7 126.2,137.4 127.3,139.1 128.5,140.7 129.7,142.4 130.9,144.1 132.0,145.7 133.1,147.3 134.3,148.9 135.4,150.5 136.5,152.1 137.6,153.7 138.7,155.2 139.8,156.8 140.8,158.3 141.9,159.8 142.9,161.3 143.9,162.7 144.9,164.2 145.9,165.6 146.9,167.0 147.9,168.4 148.8,169.8 149.8,171.1 150.7,172.4 151.6,173.7 100.0,100.0 101.1,101.9 102.2,103.8 103.3,105.8 104.4,107.7 105.5,109.6 106.7,111.5 107.8,113.4 108.9,115.3 110.0,117.2 111.1,119.1 112.1,121.0 113.2,122.9 114.3,124.8 115.4,126.7 116.5,128.5 117.5,130.4 118.6,132.2 119.7,134.1 120.7,135.9 121.8,137.7 122.8,139.5 123.8,141.3 124.9,143.1 125.9,144.8 126.9,146.6 127.9,148.3 128.9,150.0 129.9,151.7 130.9,153.4 131.8,155.1 132.8,156.8 133.7,158.4 134.7,160.0 135.6,161.6 136.5,163.2 137.4,164.8 138.3,166.3 139.2,167.9 140.0,169.4 140.9,170.9 141.8,172.3 142.6,173.8 143.4,175.2 144.2,176.6 145.0,177.9 100.0,100.0 100.9,102.0 101.9,104.0 102.8,106.0 103.8,108.0 104.7,110.1 105.6,112.1 106.6,114.1 107.5,116.1 108.4,118.0 109.3,120.0 110.3,122.0 111.2,124.0 112.1,125.9 113.0,127.9 113.9,129.9 114.8,131.8 115.7,133.7 116.6,135.6 117.5,137.6 118.4,139.5 119.3,141.3 120.2,143.2 121.0,145.1 121.9,146.9 122.7,148.8 123.6,150.6 124.4,152.4 125.3,154.2 126.1,155.9 126.9,157.7 127.7,159.4 128.5,161.1 129.3,162.8 130.1,164.5 130.9,166.2 131.6,167.8 132.4,169.4 133.1,171.0 133.9,172.6 134.6,174.1 135.3,175.7 136.0,177.2 136.7,178.7 137.4,180.1 138.0,181.6 100.0,100.0 100.8,102.1 101.5,104.2 102.3,106.3 103.0,108.3 103.8,110.4 104.6,112.5 105.3,114.6 106.1,116.6 106.8,118.7 107.6,120.8 108.3,122.8 109.1,124.9 109.8,126.9 110.5,128.9 111.3,131.0 112.0,133.0 112.7,135.0 113.5,137.0 114.2,138.9 114.9,140.9 115.6,142.9 116.3,144.8 117.0,146.7 117.7,148.6 118.4,150.5 119.1,152.4 119.8,154.3 120.4,156.2 121.1,158.0 121.8,159.8 122.4,161.6 123.1,163.4 123.7,165.1 124.3,166.9 125.0,168.6 125.6,170.3 126.2,172.0 126.8,173.6 127.4,175.3 128.0,176.9 128.6,178.5 129.1,180.0 129.7,181.6 130.2,183.1 130.8,184.6 100.0,100.0 100.6,102.1 101.1,104.3 101.7,106.4 102.3,108.6 102.9,110.7 103.4,112.9 104.0,115.0 104.6,117.1 105.2,119.2 105.7,121.3 106.3,123.5 106.8,125.6 107.4,127.7 108.0,129.7 108.5,131.8 109.1,133.9 109.6,135.9 110.2,138.0 110.7,140.0 111.3,142.0 111.8,144.1 112.3,146.1 112.9,148.0 113.4,150.0 113.9,152.0 114.4,153.9 115.0,155.8 115.5,157.7 116.0,159.6 116.5,161.5 117.0,163.3 117.5,165.1 117.9,167.0 118.4,168.7 118.9,170.5 119.4,172.3 119.8,174.0 120.3,175.7 120.7,177.4 121.2,179.0 121.6,180.7 122.0,182.3 122.5,183.8 122.9,185.4 123.3,186.9 100.0,100.0 100.4,102.2 100.8,104.4 101.2,106.6 101.5,108.7 101.9,110.9 102.3,113.1 102.7,115.3 103.1,117.4 103.5,119.6 103.8,121.8 104.2,123.9 104.6,126.1 105.0,128.2 105.3,130.3 105.7,132.4 106.1,134.5 106.5,136.6 106.8,138.7 107.2,140.8 107.6,142.9 107.9,144.9 108.3,147.0 108.6,149.0 109.0,151.0 109.3,153.0 109.7,154.9 110.0,156.9 110.4,158.8 110.7,160.8 111.1,162.7 111.4,164.6 111.7,166.4 112.0,168.3 112.4,170.1 112.7,171.9 113.0,173.7 113.3,175.4 113.6,177.2 113.9,178.9 114.2,180.6 114.5,182.2 114.8,183.9 115.1,185.5 115.4,187.1 115.6,188.6 100.0,100.0 100.2,102.2 100.4,104.4 100.6,106.6 100.8,108.8 101.0,111.1 101.2,113.3 101.4,115.5 101.5,117.6 101.7,119.8 101.9,122.0 102.1,124.2 102.3,126.4 102.5,128.5 102.7,130.7 102.9,132.8 103.1,134.9 103.2,137.1 103.4,139.2 103.6,141.3 103.8,143.4 104.0,145.4 104.2,147.5 104.3,149.5 104.5,151.6 104.7,153.6 104.9,155.6 105.0,157.6 105.2,159.5 105.4,161.5 105.5,163.4 105.7,165.3 105.9,167.2 106.0,169.1 106.2,170.9 106.4,172.7 106.5,174.5 106.7,176.3 106.8,178.1 107.0,179.8 107.1,181.5 107.3,183.2 107.4,184.8 107.6,186.5 107.7,188.1 107.8,189.7 100.0,100.0 100.0,102.2 100.0,104.4 100.0,106.7 100.0,108.9 100.0,111.1 100.0,113.3 100.0,115.5 100.0,117.7 100.0,119.9 100.0,122.1 100.0,124.3 100.0,126.5 100.0,128.6 100.0,130.8 100.0,132.9 100.0,135.1 100.0,137.2 100.0,139.3 100.0,141.4 100.0,143.5 100.0,145.6 100.0,147.7 100.0,149.7 100.0,151.8 100.0,153.8 100.0,155.8 100.0,157.8 100.0,159.8 100.0,161.7 100.0,163.6 100.0,165.6 100.0,167.4 100.0,169.3 100.0,171.2 100.0,173.0 100.0,174.8 100.0,176.6 100.0,178.4 100.0,180.1 100.0,181.8 100.0,183.5 100.0,185.2 100.0,186.8 100.0,188.4 100.0,190.0 100.0,100.0 99.8,102.2 99.6,104.4 99.4,106.6 99.2,108.8 99.0,111.1 98.8,113.3 98.6,115.5 98.5,117.6 98.3,119.8 98.1,122.0 97.9,124.2 97.7,126.4 97.5,128.5 97.3,130.7 97.1,132.8 96.9,134.9 96.8,137.1 96.6,139.2 96.4,141.3 96.2,143.4 96.0,145.4 95.8,147.5 95.7,149.5 95.5,151.6 95.3,153.6 95.1,155.6 95.0,157.6 94.8,159.5 94.6,161.5 94.5,163.4 94.3,165.3 94.1,167.2 94.0,169.1 93.8,170.9 93.6,172.7 93.5,174.5 93.3,176.3 93.2,178.1 93.0,179.8 92.9,181.5 92.7,183.2 92.6,184.8 92.4,186.5 92.3,188.1 92.2,189.7 100.0,100.0 99.6,102.2 99.2,104.4 98.8,106.6 98.5,108.7 98.1,110.9 97.7,113.1 97.3,115.3 96.9,117.4 96.5,119.6 96.2,121.8 95.8,123.9 95.4,126.1 95.0,128.2 94.7,130.3 94.3,132.4 93.9,134.5 93.5,136.6 93.2,138.7 92.8,140.8 92.4,142.9 92.1,144.9 91.7,147.0 91.4,149.0 91.0,151.0 90.7,153.0 90.3,154.9 90.0,156.9 89.6,158.8 89.3,160.8 88.9,162.7 88.6,164.6 88.3,166.4 88.0,168.3 87.6,170.1 87.3,171.9 87.0,173.7 86.7,175.4 86.4,177.2 86.1,178.9 85.8,180.6 85.5,182.2 85.2,183.9 84.9,185.5 84.6,187.1 84.4,188.6 100.0,100.0 99.4,102.1 98.9,104.3 98.3,106.4 97.7,108.6 97.1,110.7 96.6,112.9 96.0,115.0 95.4,117.1 94.8,119.2 94.3,121.3 93.7,123.5 93.2,125.6 92.6,127.7 92.0,129.7 91.5,131.8 90.9,133.9 90.4,135.9 89.8,138.0 89.3,140.0 88.7,142.0 88.2,144.1 87.7,146.1 87.1,148.0 86.6,150.0 86.1,152.0 85.6,153.9 85.0,155.8 84.5,157.7 84.0,159.6 83.5,161.5 83.0,163.3 82.5,165.1 82.1,167.0 81.6,168.7 81.1,170.5 80.6,172.3 80.2,174.0 79.7,175.7 79.3,177.4 78.8,179.0 78.4,180.7 78.0,182.3 77.5,183.8 77.1,185.4 76.7,186.9 100.0,100.0 99.2,102.1 98.5,104.2 97.7,106.3 97.0,108.3 96.2,110.4 95.4,112.5 94.7,114.6 93.9,116.6 93.2,118.7 92.4,120.8 91.7,122.8 90.9,124.9 90.2,126.9 89.5,128.9 88.7,131.0 88.0,133.0 87.3,135.0 86.5,137.0 85.8,138.9 85.1,140.9 84.4,142.9 83.7,144.8 83.0,146.7 82.3,148.6 81.6,150.5 80.9,152.4 80.2,154.3 79.6,156.2 78.9,158.0 78.2,159.8 77.6,161.6 76.9,163.4 76.3,165.1 75.7,166.9 75.0,168.6 74.4,170.3 73.8,172.0 73.2,173.6 72.6,175.3 72.0,176.9 71.4,178.5 70.9,180.0 70.3,181.6 69.8,183.1 69.2,184.6 100.0,100.0 99.1,102.0 98.1,104.0 97.2,106.0 96.2,108.0 95.3,110.1 94.4,112.1 93.4,114.1 92.5,116.1 91.6,118.0 90.7,120.0 89.7,122.0 88.8,124.0 87.9,125.9 87.0,127.9 86.1,129.9 85.2,131.8 84.3,133.7 83.4,135.6 82.5,137.6 81.6,139.5 80.7,141.3 79.8,143.2 79.0,145.1 78.1,146.9 77.3,148.8 76.4,150.6 75.6,152.4 74.7,154.2 73.9,155.9 73.1,157.7 72.3,159.4 71.5,161.1 70.7,162.8 69.9,164.5 69.1,166.2 68.4,167.8 67.6,169.4 66.9,171.0 66.1,172.6 65.4,174.1 64.7,175.7 64.0,177.2 63.3,178.7 62.6,180.1 62.0,181.6 100.0,100.0 98.9,101.9 97.8,103.8 96.7,105.8 95.6,107.7 94.5,109.6 93.3,111.5 92.2,113.4 91.1,115.3 90.0,117.2 88.9,119.1 87.9,121.0 86.8,122.9 85.7,124.8 84.6,126.7 83.5,128.5 82.5,130.4 81.4,132.2 80.3,134.1 79.3,135.9 78.2,137.7 77.2,139.5 76.2,141.3 75.1,143.1 74.1,144.8 73.1,146.6 72.1,148.3 71.1,150.0 70.1,151.7 69.1,153.4 68.2,155.1 67.2,156.8 66.3,158.4 65.3,160.0 64.4,161.6 63.5,163.2 62.6,164.8 61.7,166.3 60.8,167.9 60.0,169.4 59.1,170.9 58.2,172.3 57.4,173.8 56.6,175.2 55.8,176.6 55.0,177.9 100.0,100.0 98.7,101.8 97.5,103.6 96.2,105.5 94.9,107.3 93.6,109.1 92.4,110.9 91.1,112.7 89.8,114.5 88.6,116.3 87.3,118.1 86.1,119.9 84.8,121.7 83.6,123.5 82.3,125.2 81.1,127.0 79.9,128.7 78.7,130.5 77.4,132.2 76.2,133.9 75.0,135.7 73.8,137.4 72.7,139.1 71.5,140.7 70.3,142.4 69.1,144.1 68.0,145.7 66.9,147.3 65.7,148.9 64.6,150.5 63.5,152.1 62.4,153.7 61.3,155.2 60.2,156.8 59.2,158.3 58.1,159.8 57.1,161.3 56.1,162.7 55.1,164.2 54.1,165.6 53.1,167.0 52.1,168.4 51.2,169.8 50.2,171.1 49.3,172.4 48.4,173.7 100.0,100.0 98.6,101.7 97.1,103.4 95.7,105.1 94.3,106.8 92.9,108.5 91.4,110.2 90.0,111.9 88.6,113.6 87.2,115.3 85.8,116.9 84.4,118.6 83.0,120.3 81.6,121.9 80.2,123.6 78.8,125.2 77.4,126.9 76.1,128.5 74.7,130.1 73.4,131.7 72.0,133.3 70.7,134.9 69.4,136.5 68.0,138.1 66.7,139.7 65.4,141.2 64.1,142.7 62.9,144.3 61.6,145.8 60.3,147.3 59.1,148.8 57.9,150.2 56.6,151.7 55.4,153.1 54.3,154.5 53.1,155.9 51.9,157.3 50.8,158.7 49.6,160.0 48.5,161.4 47.4,162.7 46.3,164.0 45.3,165.2 44.2,166.5 43.2,167.7 42.1,168.9 100.0,100.0 98.4,101.6 96.9,103.1 95.3,104.7 69.2,130.8 67.7,132.3 66.3,133.7 64.8,135.2 63.4,136.6 62.0,138.0 60.5,139.5 59.1,140.9 57.7,142.3 56.4,143.6 55.0,145.0 53.6,146.4 52.3,147.7 51.0,149.0 49.7,150.3 48.4,151.6 47.1,152.9 45.8,154.2 44.6,155.4 43.4,156.6 42.1,157.9 41.0,159.0 39.8,160.2 38.6,161.4 37.5,162.5 36.4,163.6 100.0,100.0 98.3,101.4 96.6,102.9 31.1,157.9 100.0,100.0 98.2,101.3 96.4,102.5 100.0,100.0 98.1,101.1 100.0,100.0 98.0,100.9 100.0,100.0 97.9,100.8 100.0,100.0 97.9,100.6 100.0,100.0 97.8,100.4 100.0,100.0 97.8,100.2 100.0,100.0 97.8,100.0 100.0,100.0 97.8,99.8 100.0,100.0 97.8,99.6 100.0,100.0 97.9,99.4 100.0,100.0 97.9,99.2 100.0,100.0 98.0,99.1 100.0,100.0 98.1,98.9 100.0,100.0 98.2,98.7 100.0,100.0 98.3,98.6 100.0,100.0 98.4,98.4 96.9,96.9 100.0,100.0 98.6,98.3 97.1,96.6 100.0,100.0 98.7,98.2 97.5,96.4 96.2,94.5 73.8,62.6 72.7,60.9 71.5,59.3 70.3,57.6 69.1,55.9 68.0,54.3 66.9,52.7 65.7,51.1 64.6,49.5 63.5,47.9 62.4,46.3 61.3,44.8 60.2,43.2 59.2,41.7 58.1,40.2 57.1,38.7 56.1,37.3 55.1,35.8 54.1,34.4 53.1,33.0 52.1,31.6 51.2,30.2 50.2,28.9 49.3,27.6 48.4,26.3 100.0,100.0 98.9,98.1 97.8,96.2 96.7,94.2 95.6,92.3 94.5,90.4 93.3,88.5 92.2,86.6 91.1,84.7 90.0,82.8 88.9,80.9 87.9,79.0 86.8,77.1 85.7,75.2 84.6,73.3 83.5,71.5 82.5,69.6 81.4,67.8 80.3,65.9 79.3,64.1 78.2,62.3 77.2,60.5 76.2,58.7 75.1,56.9 74.1,55.2 73.1,53.4 72.1,51.7 71.1,50.0 70.1,48.3 69.1,46.6 68.2,44.9 67.2,43.2 66.3,41.6 65.3,40.0 64.4,38.4 63.5,36.8 62.6,35.2 61.7,33.7 60.8,32.1 60.0,30.6 59.1,29.1 58.2,27.7 57.4,26.2 56.6,24.8 55.8,23.4 55.0,22.1 100.0,100.0 99.1,98.0 98.1,96.0 97.2,94.0 96.2,92.0 95.3,89.9 94.4,87.9 93.4,85.9 92.5,83.9 91.6,82.0 90.7,80.0 89.7,78.0 88.8,76.0 87.9,74.1 87.0,72.1 86.1,70.1 85.2,68.2 84.3,66.3 83.4,64.4 82.5,62.4 81.6,60.5 80.7,58.7 79.8,56.8 79.0,54.9 78.1,53.1 77.3,51.2 76.4,49.4 75.6,47.6 74.7,45.8 73.9,44.1 73.1,42.3 72.3,40.6 71.5,38.9 70.7,37.2 69.9,35.5 69.1,33.8 68.4,32.2 67.6,30.6 66.9,29.0 66.1,27.4 65.4,25.9 64.7,24.3 64.0,22.8 63.3,21.3 62.6,19.9 62.0,18.4 100.0,100.0 99.2,97.9 98.5,95.8 97.7,93.7 97.0,91.7 96.2,89.6 95.4,87.5 94.7,85.4 93.9,83.4 93.2,81.3 92.4,79.2 91.7,77.2 90.9,75.1 90.2,73.1 89.5,71.1 88.7,69.0 88.0,67.0 87.3,65.0 86.5,63.0 85.8,61.1 85.1,59.1 84.4,57.1 83.7,55.2 83.0,53.3 82.3,51.4 81.6,49.5 80.9,47.6 80.2,45.7 79.6,43.8 78.9,42.0 78.2,40.2 77.6,38.4 76.9,36.6 76.3,34.9 75.7,33.1 75.0,31.4 74.4,29.7 73.8,28.0 73.2,26.4 72.6,24.7 72.0,23.1 71.4,21.5 70.9,20.0 70.3,18.4 69.8,16.9 69.2,15.4 100.0,100.0 99.4,97.9 98.9,95.7 98.3,93.6 97.7,91.4 97.1,89.3 96.6,87.1 96.0,85.0 95.4,82.9 94.8,80.8 94.3,78.7 93.7,76.5 93.2,74.4 92.6,72.3 92.0,70.3 91.5,68.2 90.9,66.1 90.4,64.1 89.8,62.0 89.3,60.0 88.7,58.0 88.2,55.9 87.7,53.9 87.1,52.0 86.6,50.0 86.1,48.0 85.6,46.1 85.0,44.2 84.5,42.3 84.0,40.4 83.5,38.5 83.0,36.7 82.5,34.9 82.1,33.0 81.6,31.3 81.1,29.5 80.6,27.7 80.2,26.0 79.7,24.3 79.3,22.6 78.8,21.0 78.4,19.3 78.0,17.7 77.5,16.2 77.1,14.6 76.7,13.1 100.0,100.0 99.6,97.8 99.2,95.6 98.8,93.4 98.5,91.3 98.1,89.1 97.7,86.9 97.3,84.7 96.9,82.6 96.5,80.4 96.2,78.2 95.8,76.1 95.4,73.9 95.0,71.8 94.7,69.7 94.3,67.6 93.9,65.5 93.5,63.4 93.2,61.3 92.8,59.2 92.4,57.1 92.1,55.1 91.7,53.0 91.4,51.0 91.0,49.0 90.7,47.0 90.3,45.1 90.0,43.1 89.6,41.2 89.3,39.2 88.9,37.3 88.6,35.4 88.3,33.6 88.0,31.7 87.6,29.9 87.3,28.1 87.0,26.3 86.7,24.6 86.4,22.8 86.1,21.1 85.8,19.4 85.5,17.8 85.2,16.1 84.9,14.5 84.6,12.9 84.4,11.4 100.0,100.0 99.8,97.8 99.6,95.6 99.4,93.4 99.2,91.2 99.0,88.9 98.8,86.7 98.6,84.5 98.5,82.4 98.3,80.2 98.1,78.0 97.9,75.8 97.7,73.6 97.5,71.5 97.3,69.3 97.1,67.2 96.9,65.1 96.8,62.9 96.6,60.8 96.4,58.7 96.2,56.6 96.0,54.6 95.8,52.5 95.7,50.5 95.5,48.4 95.3,46.4 95.1,44.4 95.0,42.4 94.8,40.5 94.6,38.5 94.5,36.6 94.3,34.7 94.1,32.8 94.0,30.9 93.8,29.1 93.6,27.3 93.5,25.5 93.3,23.7 93.2,21.9 93.0,20.2 92.9,18.5 92.7,16.8 92.6,15.2 92.4,13.5 92.3,11.9 92.2,10.3" fill="#3030E0" fill-opacity="0.7" stroke="none"/>
<circle cx="100.0" cy="100.0" r="90.0" fill="none" stroke="black" stroke-width="2"/>
<circle cx="170.1" cy="100.0" r="5" fill="black" stroke="white" stroke-width="1"/>
<circle cx="149.5" cy="50.5" r="5" fill="white" stroke="black" stroke-width="1.5"/>
<circle cx="100.0" cy="29.9" r="5" fill="white" stroke="black" stroke-width="1.5"/>
<circle cx="50.5" cy="50.5" r="5" fill="black" stroke="white" stroke-width="1"/>
<circle cx="29.9" cy="100.0" r="5" fill="black" stroke="white" stroke-width="1"/>
<circle cx="50.5" cy="149.5" r="5" fill="black" stroke="white" stroke-width="1"/>
<circle cx="100.0" cy="170.1" r="5" fill="white" stroke="black" stroke-width="1.5"/>
<circle cx="149.5" cy="149.5" r="5" fill="white" stroke="black" stroke-width="1.5"/>
<text x="100.0" y="198.0" text-anchor="middle" font-size="11" font-family="sans-serif">Strike-Slip</text>
</svg>